# xmcd
#
# Track frame offsets:
#	150
#	17425
#	29994
#	42752
#	59172
#	73707
#	87717
#	104265
#	119457
#	135402
#	153000
#
# Disc length: 2285 seconds
#
# Revision: 1
# Processed by: cddbd v1.5.1PL0 Copyright (c) Steve Scherf et al.
# Submitted via: audiograbber 1.81.02
#
DISCID=9708eb0b
DTITLE=Verschiedene - Fels des Heils
DYEAR=2005
DGENRE=Chorus
TTITLE0=Gott ist gegenwärtig
TTITLE1=Fels des Heils, geöffnet mir
TTITLE2=Heilig, heilig, heilig
TTITLE3=Du meine Seele, singe
TTITLE4=Ich brauch dich allezeit
TTITLE5=Ist's wahr, dass Jesus starb für mich
TTITLE6=Ich blicke voll Beugung und Staunen
TTITLE7=So wie ich bin
TTITLE8=O du Lamm Gottes
TTITLE9=O Haupt voll Blut und Wunden
TTITLE10=Näher, noch näher
EXTD=
EXTT0=
EXTT1=
EXTT2=
EXTT3=
EXTT4=
EXTT5=
EXTT6=
EXTT7=
EXTT8=
EXTT9=
EXTT10=
PLAYORDER=
